<svg xmlns="http://www.w3.org/2000/svg" viewBox="0 0 100 331.2510070800781" data-exsurge-glyph="DoClef"><title>DoClef</title><g transform="translate(0 164.87600708007812)"><path fill="#000" d="M0 98.406V-97.688C0-118 5.99-134.275 17.97-146.516c11.978-12.24 27.603-18.36 46.874-18.36 10.937 0 19.53 3.126 25.78 9.376s9.376 14.583 9.376 25v107.813l-6.25-5.47c-4.167-3.645-10.287-7.42-18.36-11.327-8.072-3.907-16.796-5.86-26.17-5.86-11.46 0-21.486 4.427-30.08 13.282-8.593 8.854-12.89 19.53-12.89 32.03s4.297 23.308 12.89 32.423c8.594 9.115 18.62 13.672 30.08 13.672 9.374 0 18.098-1.822 26.17-5.468 8.073-3.646 14.193-7.292 18.36-10.938l6.25-6.25V132c0 9.896-3.125 18.1-9.375 24.61-6.25 6.51-14.844 9.765-25.78 9.765-19.272 0-34.897-6.25-46.876-18.75C5.99 135.125 0 118.72 0 98.405z"/></g></svg>
