<svg xmlns="http://www.w3.org/2000/svg" viewBox="0 0 193.75201416015625 333.5950012207031" data-exsurge-glyph="FaClef"><title>FaClef</title><g transform="translate(0.001003265380859375 157.00100708007812)"><path fill="#000" d="M85.156-32v193.75c0 9.375-1.562 14.323-4.687 14.844-1.564 0-2.605-.52-3.126-1.563-.52-1.04-.782-2.603-.78-4.686V56.28c-8.335-8.332-19.793-12.5-34.376-12.5-17.71 0-31.77 3.907-42.188 11.72V-32c0-18.23 14.193-27.344 42.578-27.344 28.385 0 42.578 9.115 42.578 27.344zM98.438 93V-92.156c0-19.27 5.73-34.896 17.187-46.875 11.458-11.98 26.562-17.97 45.313-17.97 10.937 0 19.14 2.865 24.61 8.594 5.467 5.73 8.202 13.542 8.202 23.437v103.126l-5.47-4.687c-3.645-3.647-9.374-7.293-17.186-10.94-7.813-3.645-15.886-5.467-24.22-5.468-11.978 0-22.004 4.167-30.077 12.5-8.073 8.334-12.11 18.36-12.11 30.08 0 11.717 4.037 22.004 12.11 30.858s18.1 13.28 30.078 13.28c8.333 0 16.406-1.822 24.22-5.468 7.81-3.645 13.54-7.03 17.186-10.156l5.47-5.468V125.81c0 9.896-2.865 17.84-8.594 23.83-5.73 5.988-13.802 8.983-24.22 8.983-18.75 0-33.853-6.12-45.31-18.36-11.46-12.24-17.19-27.994-17.19-47.265z"/></g></svg>
