<svg xmlns="http://www.w3.org/2000/svg" viewBox="0 0 97.91699981689453 267.968994140625" data-exsurge-glyph="Flat"><title>Flat</title><g transform="translate(1.0420000553131104 204.406005859375)"><path fill="#000" d="M7.813-204.406c4.166 0 6.25 5.208 6.25 15.625L12.5-10.657C33.854 13.302 54.167 25.28 73.438 25.28c9.374 0 14.062-4.686 14.062-14.06 0-6.25-1.042-11.72-3.125-16.407-2.083-4.688-7.03-9.766-14.844-15.235-7.81-5.47-13.02-8.984-15.624-10.547L27.344-45.81V-80.97c17.187 0 33.073 4.82 47.656 14.454C89.583-56.88 96.875-47.376 96.875-38c0 67.708-.26 101.562-.78 101.563-38.543 0-69.532-12.24-92.97-36.72C0-52.322-1.042-123.936 0-188c0-10.937 2.604-16.406 7.813-16.406z"/></g></svg>
