<svg xmlns="http://www.w3.org/2000/svg" viewBox="0 0 70.31100463867188 330.468994140625" data-exsurge-glyph="Natural"><title>Natural</title><g transform="translate(0.3120002746582031 166.56300354003906)"><path fill="#000" d="M7.906-166.563c-2.864 0-5.614.52-8.218 1.563v13.28l.78 56.25.782 78.907v85.157c.52 3.646 2.604 5.73 6.25 6.25l23.438-3.906 23.437-3.907v29.69c0 42.186-.26 63.54-.78 64.06l6.25 2.345c1.04.52 2.082.78 3.124.78 2.603 0 4.947-1.3 7.03-3.905L67.656-71.25c-.52-2.604-2.083-3.906-4.687-3.906-7.814 0-17.19 1.04-28.126 3.125l-19.53 3.124.78-38.28V-165c-2.604-1.042-5.323-1.562-8.188-1.563zM55.938-40v71.875l-41.407 7.03c0-48.436.262-72.655.783-72.655L55.938-40z"/></g></svg>
