<svg xmlns="http://www.w3.org/2000/svg" viewBox="0 0 100 147.656005859375" data-exsurge-glyph="OriscusAsc"><title>OriscusAsc</title><g transform="translate(50 76)"><path fill="#000" d="M50 30.25c0 12.5-3.125 21.354-9.375 26.562-3.125 2.605-7.813 3.907-14.063 3.907-3.125 0-5.99-.522-8.593-1.564-2.605-1.04-5.6-2.474-8.986-4.297C5.6 53.035 2.734 51.603.39 50.56c-2.343-1.04-5.338-2.474-8.984-4.296-3.646-1.823-6.77-3.256-9.375-4.297-2.603-1.043-5.468-1.564-8.593-1.564-6.25 0-10.937 1.563-14.062 4.688C-46.875 50.824-50 59.677-50 71.656v-106.25c0-13.02 3.125-21.875 9.375-26.562 3.125-2.604 7.813-3.906 14.063-3.907 3.125 0 5.99.52 8.593 1.563 2.605 1.042 5.73 2.474 9.376 4.297 3.646 1.823 6.51 2.995 8.594 3.516l10.938 5.468c6.25 3.126 11.458 4.69 15.624 4.69 6.25 0 10.938-1.564 14.063-4.69C46.875-55.426 50-64.02 50-76V30.25z"/></g></svg>
