<svg xmlns="http://www.w3.org/2000/svg" viewBox="0 0 100 147.656005859375" data-exsurge-glyph="OriscusDes"><title>OriscusDes</title><g transform="translate(50 75.40599822998047)"><path fill="#000" d="M-50 30.844v-106.25c0 11.458 3.125 20.052 9.375 25.78 3.125 3.126 7.813 4.69 14.063 4.688 4.687 0 13.41-3.255 26.17-9.765 12.762-6.51 21.746-9.766 26.954-9.766 6.25 0 10.938 1.303 14.063 3.907C46.875-55.874 50-47.02 50-34V72.25c0-11.98-3.125-20.833-9.375-26.563C37.5 42.563 32.812 41 26.562 41 21.875 41 13.023 44.385 0 51.156c-4.167 2.604-8.594 4.948-13.28 7.032-4.69 2.083-9.116 3.124-13.283 3.124-6.25 0-10.937-1.302-14.062-3.906C-46.875 52.198-50 43.344-50 30.844z"/></g></svg>
