<svg xmlns="http://www.w3.org/2000/svg" viewBox="0 0 100 123.43799591064453" data-exsurge-glyph="PunctumCavum"><title>PunctumCavum</title><g transform="translate(50 60.90599822998047)"><path fill="#000" d="M0-60.906c33.333 0 50 9.635 50 28.906v94.53C39.062 51.595 22.396 46.126 0 46.126s-39.063 5.47-50 16.406V-32c0-19.27 16.667-28.906 50-28.906z"/><path fill="#fff" d="M.08-42.56c9.585.206 20.126.53 27.954 6.822 4.96 3.9 4.71 10.792 4.574 16.482v51.278C22.09 27.066 7.283 26.072.168 26.01c-7.72.23-21.895.935-32.616 4.674.04-19.197-.083-38.395.064-57.59.567-7.5 7.834-12.33 14.62-13.774 5.818-1.498 11.857-1.86 17.844-1.88z"/></g></svg>
