<svg xmlns="http://www.w3.org/2000/svg" viewBox="0 0 100 150" data-exsurge-glyph="Quilisma"><title>Quilisma</title><g transform="translate(50 89.28199768066406)"><path fill="#000" d="M-50 34.938V-51c5.73 20.833 13.02 31.25 21.875 31.25 7.813 0 12.5-15.625 14.063-46.875 3.645 12.5 6.9 21.224 9.765 26.172s6.9 7.422 12.11 7.422c5.208 0 9.374-14.324 12.5-42.97 5.73 22.917 10.677 34.375 14.843 34.375 5.73 0 10.677-15.885 14.844-47.656v100c0 17.707-3.125 26.56-9.375 26.56-4.688 0-9.115-5.988-13.28-17.968-2.085 21.875-8.074 32.813-17.97 32.813-7.813 0-16.146-7.292-25-21.875-4.688 20.312-10.677 30.47-17.97 30.47-5.207 0-9.244-2.605-12.108-7.814C-48.568 47.698-50 41.708-50 34.938z"/></g></svg>
