<svg xmlns="http://www.w3.org/2000/svg" viewBox="0 0 98.01399993896484 175.2209930419922" data-exsurge-glyph="Virgula"><title>Virgula</title><g transform="translate(1.0739939212799072 88.86000061035156)"><path fill="#000" d="M8.178-55.66c0-22.137 12.092-33.2 36.287-33.2 11.835 0 23.53 5.66 35.108 16.98C91.15-60.547 96.94-41.766 96.94-15.534c0 53.515-31.646 87.487-94.937 101.895-2.048-2.06-3.077-5.146-3.077-9.273 0-1.03.247-1.8.76-2.316 42.71-19.027 64.075-41.678 64.075-67.92 0-11.322-2.325-20.326-6.945-27.016-4.62-6.69-9.52-11.052-14.676-13.11-5.147-2.048-11.836-3.85-20.07-5.403C12.81-39.707 8.18-45.37 8.18-55.66z"/></g></svg>
